<svg width="21" height="21" viewBox="0 0 21 21" fill="none" xmlns="http://www.w3.org/2000/svg">
<path d="M10.168 12.666C11.5487 12.666 12.668 11.5467 12.668 10.166C12.668 8.7853 11.5487 7.66602 10.168 7.66602C8.78726 7.66602 7.66797 8.7853 7.66797 10.166C7.66797 11.5467 8.78726 12.666 10.168 12.666Z" stroke="#FFFFFF" stroke-width="2" stroke-linecap="round" stroke-linejoin="round"/>
<path d="M16.3333 12.6667C16.2224 12.918 16.1893 13.1968 16.2383 13.4672C16.2873 13.7375 16.4162 13.9869 16.6083 14.1833L16.6583 14.2333C16.8133 14.3881 16.9362 14.5719 17.0201 14.7743C17.104 14.9766 17.1471 15.1935 17.1471 15.4125C17.1471 15.6315 17.104 15.8484 17.0201 16.0507C16.9362 16.2531 16.8133 16.4369 16.6583 16.5917C16.5035 16.7466 16.3197 16.8696 16.1174 16.9534C15.9151 17.0373 15.6982 17.0805 15.4792 17.0805C15.2601 17.0805 15.0433 17.0373 14.8409 16.9534C14.6386 16.8696 14.4548 16.7466 14.3 16.5917L14.25 16.5417C14.0536 16.3496 13.8042 16.2207 13.5338 16.1717C13.2635 16.1226 12.9847 16.1557 12.7333 16.2667C12.4869 16.3723 12.2767 16.5477 12.1286 16.7713C11.9805 16.9949 11.9011 17.2568 11.9 17.525V17.6667C11.9 18.1087 11.7244 18.5326 11.4118 18.8452C11.0993 19.1577 10.6754 19.3333 10.2333 19.3333C9.7913 19.3333 9.36738 19.1577 9.05482 18.8452C8.74226 18.5326 8.56667 18.1087 8.56667 17.6667V17.5917C8.56021 17.3158 8.47093 17.0483 8.31042 16.8239C8.14992 16.5995 7.92561 16.4286 7.66667 16.3333C7.41532 16.2224 7.13651 16.1893 6.86618 16.2383C6.59585 16.2873 6.3464 16.4162 6.15 16.6083L6.1 16.6583C5.94521 16.8133 5.7614 16.9362 5.55907 17.0201C5.35674 17.104 5.13986 17.1471 4.92083 17.1471C4.70181 17.1471 4.48493 17.104 4.2826 17.0201C4.08027 16.9362 3.89645 16.8133 3.74167 16.6583C3.58671 16.5035 3.46377 16.3197 3.3799 16.1174C3.29603 15.9151 3.25286 15.6982 3.25286 15.4792C3.25286 15.2601 3.29603 15.0433 3.3799 14.8409C3.46377 14.6386 3.58671 14.4548 3.74167 14.3L3.79167 14.25C3.98378 14.0536 4.11265 13.8042 4.16167 13.5338C4.21069 13.2635 4.1776 12.9847 4.06667 12.7333C3.96103 12.4869 3.78563 12.2767 3.56205 12.1286C3.33848 11.9805 3.07649 11.9011 2.80833 11.9H2.66667C2.22464 11.9 1.80072 11.7244 1.48816 11.4118C1.17559 11.0993 1 10.6754 1 10.2333C1 9.7913 1.17559 9.36738 1.48816 9.05482C1.80072 8.74226 2.22464 8.56667 2.66667 8.56667H2.74167C3.0175 8.56021 3.285 8.47093 3.50942 8.31042C3.73383 8.14992 3.90476 7.92561 4 7.66667C4.11093 7.41532 4.14402 7.13651 4.095 6.86618C4.04599 6.59585 3.91711 6.3464 3.725 6.15L3.675 6.1C3.52004 5.94521 3.39711 5.7614 3.31323 5.55907C3.22936 5.35674 3.18619 5.13986 3.18619 4.92083C3.18619 4.70181 3.22936 4.48493 3.31323 4.2826C3.39711 4.08027 3.52004 3.89645 3.675 3.74167C3.82979 3.58671 4.0136 3.46377 4.21593 3.3799C4.41826 3.29603 4.63514 3.25286 4.85417 3.25286C5.07319 3.25286 5.29007 3.29603 5.4924 3.3799C5.69473 3.46377 5.87854 3.58671 6.03333 3.74167L6.08333 3.79167C6.27973 3.98378 6.52918 4.11265 6.79951 4.16167C7.06984 4.21069 7.34865 4.1776 7.6 4.06667H7.66667C7.91314 3.96103 8.12335 3.78563 8.27141 3.56205C8.41947 3.33848 8.49893 3.07649 8.5 2.80833V2.66667C8.5 2.22464 8.67559 1.80072 8.98815 1.48816C9.30072 1.17559 9.72464 1 10.1667 1C10.6087 1 11.0326 1.17559 11.3452 1.48816C11.6577 1.80072 11.8333 2.22464 11.8333 2.66667V2.74167C11.8344 3.00982 11.9139 3.27181 12.0619 3.49539C12.21 3.71896 12.4202 3.89436 12.6667 4C12.918 4.11093 13.1968 4.14402 13.4672 4.095C13.7375 4.04599 13.9869 3.91711 14.1833 3.725L14.2333 3.675C14.3881 3.52004 14.5719 3.39711 14.7743 3.31323C14.9766 3.22936 15.1935 3.18619 15.4125 3.18619C15.6315 3.18619 15.8484 3.22936 16.0507 3.31323C16.2531 3.39711 16.4369 3.52004 16.5917 3.675C16.7466 3.82979 16.8696 4.0136 16.9534 4.21593C17.0373 4.41826 17.0805 4.63514 17.0805 4.85417C17.0805 5.07319 17.0373 5.29007 16.9534 5.4924C16.8696 5.69473 16.7466 5.87854 16.5917 6.03333L16.5417 6.08333C16.3496 6.27973 16.2207 6.52918 16.1717 6.79951C16.1226 7.06984 16.1557 7.34865 16.2667 7.6V7.66667C16.3723 7.91314 16.5477 8.12335 16.7713 8.27141C16.9949 8.41947 17.2568 8.49893 17.525 8.5H17.6667C18.1087 8.5 18.5326 8.67559 18.8452 8.98815C19.1577 9.30072 19.3333 9.72464 19.3333 10.1667C19.3333 10.6087 19.1577 11.0326 18.8452 11.3452C18.5326 11.6577 18.1087 11.8333 17.6667 11.8333H17.5917C17.3235 11.8344 17.0615 11.9139 16.8379 12.0619C16.6144 12.21 16.439 12.4202 16.3333 12.6667V12.6667Z" stroke="#FFFFFF" stroke-width="2" stroke-linecap="round" stroke-linejoin="round"/>
</svg>
