<svg width="150" height="160" viewBox="0 0 150 160" fill="none" xmlns="http://www.w3.org/2000/svg">
<mask id="mask0" mask-type="alpha" maskUnits="userSpaceOnUse" x="0" y="0" width="150" height="160">
<rect width="150" height="160" rx="8" fill="url(#paint0_linear)"/>
</mask>
<g mask="url(#mask0)">
<path d="M168.287 25.7151C171.366 25.715 173.29 29.0484 171.751 31.7151L108.964 140.465C107.424 143.132 103.575 143.132 102.036 140.465L39.2488 31.715C37.7092 29.0484 39.6338 25.715 42.713 25.715L168.287 25.7151Z" fill="url(#paint1_linear)"/>
<path d="M141.751 79.1799C144.831 79.1799 146.755 82.5132 145.216 85.1799L82.4287 193.93C80.8891 196.597 77.0401 196.597 75.5005 193.93L12.7137 85.1799C11.1741 82.5132 13.0986 79.1799 16.1778 79.1799L141.751 79.1799Z" fill="url(#paint2_linear)"/>
<path d="M24.964 138.533V140H17.647V127.103H19.384V138.533H24.964ZM29.7077 130.739C30.3737 130.739 30.9737 130.85 31.5077 131.072C32.0417 131.294 32.4977 131.609 32.8757 132.017C33.2537 132.425 33.5417 132.92 33.7397 133.502C33.9437 134.078 34.0457 134.723 34.0457 135.437C34.0457 136.157 33.9437 136.805 33.7397 137.381C33.5417 137.957 33.2537 138.449 32.8757 138.857C32.4977 139.265 32.0417 139.58 31.5077 139.802C30.9737 140.018 30.3737 140.126 29.7077 140.126C29.0357 140.126 28.4297 140.018 27.8897 139.802C27.3557 139.58 26.8997 139.265 26.5217 138.857C26.1437 138.449 25.8527 137.957 25.6487 137.381C25.4507 136.805 25.3517 136.157 25.3517 135.437C25.3517 134.723 25.4507 134.078 25.6487 133.502C25.8527 132.92 26.1437 132.425 26.5217 132.017C26.8997 131.609 27.3557 131.294 27.8897 131.072C28.4297 130.85 29.0357 130.739 29.7077 130.739ZM29.7077 138.875C30.6077 138.875 31.2797 138.575 31.7237 137.975C32.1677 137.369 32.3897 136.526 32.3897 135.446C32.3897 134.36 32.1677 133.514 31.7237 132.908C31.2797 132.302 30.6077 131.999 29.7077 131.999C29.2517 131.999 28.8527 132.077 28.5107 132.233C28.1747 132.389 27.8927 132.614 27.6647 132.908C27.4427 133.202 27.2747 133.565 27.1607 133.997C27.0527 134.423 26.9987 134.906 26.9987 135.446C26.9987 136.526 27.2207 137.369 27.6647 137.975C28.1147 138.575 28.7957 138.875 29.7077 138.875ZM48.51 130.883L45.558 140H44.289C44.133 140 44.025 139.898 43.965 139.694L41.949 133.511C41.901 133.373 41.862 133.235 41.832 133.097C41.802 132.953 41.772 132.812 41.742 132.674C41.712 132.812 41.682 132.953 41.652 133.097C41.622 133.235 41.583 133.376 41.535 133.52L39.483 139.694C39.429 139.898 39.309 140 39.123 140H37.917L34.965 130.883H36.225C36.351 130.883 36.456 130.916 36.54 130.982C36.63 131.048 36.69 131.126 36.72 131.216L38.466 137.084C38.568 137.516 38.649 137.924 38.709 138.308C38.763 138.11 38.817 137.909 38.871 137.705C38.931 137.501 38.994 137.294 39.06 137.084L40.986 131.18C41.016 131.09 41.067 131.015 41.139 130.955C41.217 130.895 41.31 130.865 41.418 130.865H42.12C42.24 130.865 42.339 130.895 42.417 130.955C42.495 131.015 42.549 131.09 42.579 131.18L44.46 137.084C44.526 137.294 44.586 137.501 44.64 137.705C44.694 137.909 44.745 138.11 44.793 138.308C44.823 138.11 44.859 137.912 44.901 137.714C44.949 137.51 45 137.3 45.054 137.084L46.836 131.216C46.866 131.12 46.923 131.042 47.007 130.982C47.091 130.916 47.19 130.883 47.304 130.883H48.51ZM55.9171 137.804C56.2111 138.2 56.5321 138.479 56.8801 138.641C57.2281 138.803 57.6181 138.884 58.0501 138.884C58.9021 138.884 59.5561 138.581 60.0121 137.975C60.4681 137.369 60.6961 136.505 60.6961 135.383C60.6961 134.789 60.6421 134.279 60.5341 133.853C60.4321 133.427 60.2821 133.079 60.0841 132.809C59.8861 132.533 59.6431 132.332 59.3551 132.206C59.0671 132.08 58.7401 132.017 58.3741 132.017C57.8521 132.017 57.3931 132.137 56.9971 132.377C56.6071 132.617 56.2471 132.956 55.9171 133.394V137.804ZM55.8361 132.296C56.2201 131.822 56.6641 131.441 57.1681 131.153C57.6721 130.865 58.2481 130.721 58.8961 130.721C59.4241 130.721 59.9011 130.823 60.3271 131.027C60.7531 131.225 61.1161 131.522 61.4161 131.918C61.7161 132.308 61.9471 132.794 62.1091 133.376C62.2711 133.958 62.3521 134.627 62.3521 135.383C62.3521 136.055 62.2621 136.682 62.0821 137.264C61.9021 137.84 61.6411 138.341 61.2991 138.767C60.9631 139.187 60.5491 139.52 60.0571 139.766C59.5711 140.006 59.0221 140.126 58.4101 140.126C57.8521 140.126 57.3721 140.033 56.9701 139.847C56.5741 139.655 56.2231 139.391 55.9171 139.055V143.087H54.3061V130.883H55.2691C55.4971 130.883 55.6381 130.994 55.6921 131.216L55.8361 132.296ZM65.917 132.71C66.205 132.086 66.559 131.6 66.979 131.252C67.399 130.898 67.912 130.721 68.518 130.721C68.71 130.721 68.893 130.742 69.067 130.784C69.247 130.826 69.406 130.892 69.544 130.982L69.427 132.179C69.391 132.329 69.301 132.404 69.157 132.404C69.073 132.404 68.95 132.386 68.788 132.35C68.626 132.314 68.443 132.296 68.239 132.296C67.951 132.296 67.693 132.338 67.465 132.422C67.243 132.506 67.042 132.632 66.862 132.8C66.688 132.962 66.529 133.166 66.385 133.412C66.247 133.652 66.121 133.928 66.007 134.24V140H64.396V130.883H65.314C65.488 130.883 65.608 130.916 65.674 130.982C65.74 131.048 65.785 131.162 65.809 131.324L65.917 132.71ZM76.6855 134.447C76.6855 134.075 76.6315 133.736 76.5235 133.43C76.4215 133.118 76.2685 132.851 76.0645 132.629C75.8665 132.401 75.6235 132.227 75.3355 132.107C75.0475 131.981 74.7205 131.918 74.3545 131.918C73.5865 131.918 72.9775 132.143 72.5275 132.593C72.0835 133.037 71.8075 133.655 71.6995 134.447H76.6855ZM77.9815 138.722C77.7835 138.962 77.5465 139.172 77.2705 139.352C76.9945 139.526 76.6975 139.67 76.3795 139.784C76.0675 139.898 75.7435 139.982 75.4075 140.036C75.0715 140.096 74.7385 140.126 74.4085 140.126C73.7785 140.126 73.1965 140.021 72.6625 139.811C72.1345 139.595 71.6755 139.283 71.2855 138.875C70.9015 138.461 70.6015 137.951 70.3855 137.345C70.1695 136.739 70.0615 136.043 70.0615 135.257C70.0615 134.621 70.1575 134.027 70.3495 133.475C70.5475 132.923 70.8295 132.446 71.1955 132.044C71.5615 131.636 72.0085 131.318 72.5365 131.09C73.0645 130.856 73.6585 130.739 74.3185 130.739C74.8645 130.739 75.3685 130.832 75.8305 131.018C76.2985 131.198 76.7005 131.462 77.0365 131.81C77.3785 132.152 77.6455 132.578 77.8375 133.088C78.0295 133.592 78.1255 134.168 78.1255 134.816C78.1255 135.068 78.0985 135.236 78.0445 135.32C77.9905 135.404 77.8885 135.446 77.7385 135.446H71.6455C71.6635 136.022 71.7415 136.523 71.8795 136.949C72.0235 137.375 72.2215 137.732 72.4735 138.02C72.7255 138.302 73.0255 138.515 73.3735 138.659C73.7215 138.797 74.1115 138.866 74.5435 138.866C74.9455 138.866 75.2905 138.821 75.5785 138.731C75.8725 138.635 76.1245 138.533 76.3345 138.425C76.5445 138.317 76.7185 138.218 76.8565 138.128C77.0005 138.032 77.1235 137.984 77.2255 137.984C77.3575 137.984 77.4595 138.035 77.5315 138.137L77.9815 138.722ZM85.0342 135.896C84.2962 135.92 83.6662 135.98 83.1442 136.076C82.6282 136.166 82.2052 136.286 81.8752 136.436C81.5512 136.586 81.3142 136.763 81.1642 136.967C81.0202 137.171 80.9482 137.399 80.9482 137.651C80.9482 137.891 80.9872 138.098 81.0652 138.272C81.1432 138.446 81.2482 138.59 81.3802 138.704C81.5182 138.812 81.6772 138.893 81.8572 138.947C82.0432 138.995 82.2412 139.019 82.4512 139.019C82.7332 139.019 82.9912 138.992 83.2252 138.938C83.4592 138.878 83.6782 138.794 83.8822 138.686C84.0922 138.578 84.2902 138.449 84.4762 138.299C84.6682 138.149 84.8542 137.978 85.0342 137.786V135.896ZM79.8592 132.17C80.3632 131.684 80.9062 131.321 81.4882 131.081C82.0702 130.841 82.7152 130.721 83.4232 130.721C83.9332 130.721 84.3862 130.805 84.7822 130.973C85.1782 131.141 85.5112 131.375 85.7812 131.675C86.0512 131.975 86.2552 132.338 86.3932 132.764C86.5312 133.19 86.6002 133.658 86.6002 134.168V140H85.8892C85.7332 140 85.6132 139.976 85.5292 139.928C85.4452 139.874 85.3792 139.772 85.3312 139.622L85.1512 138.758C84.9112 138.98 84.6772 139.178 84.4492 139.352C84.2212 139.52 83.9812 139.664 83.7292 139.784C83.4772 139.898 83.2072 139.985 82.9192 140.045C82.6372 140.111 82.3222 140.144 81.9742 140.144C81.6202 140.144 81.2872 140.096 80.9752 140C80.6632 139.898 80.3902 139.748 80.1562 139.55C79.9282 139.352 79.7452 139.103 79.6072 138.803C79.4752 138.497 79.4092 138.137 79.4092 137.723C79.4092 137.363 79.5082 137.018 79.7062 136.688C79.9042 136.352 80.2252 136.055 80.6692 135.797C81.1132 135.539 81.6922 135.329 82.4062 135.167C83.1202 134.999 83.9962 134.903 85.0342 134.879V134.168C85.0342 133.46 84.8812 132.926 84.5752 132.566C84.2692 132.2 83.8222 132.017 83.2342 132.017C82.8382 132.017 82.5052 132.068 82.2352 132.17C81.9712 132.266 81.7402 132.377 81.5422 132.503C81.3502 132.623 81.1822 132.734 81.0382 132.836C80.9002 132.932 80.7622 132.98 80.6242 132.98C80.5162 132.98 80.4232 132.953 80.3452 132.899C80.2672 132.839 80.2012 132.767 80.1472 132.683L79.8592 132.17ZM94.3505 132.386C94.2785 132.518 94.1675 132.584 94.0175 132.584C93.9275 132.584 93.8255 132.551 93.7115 132.485C93.5975 132.419 93.4565 132.347 93.2885 132.269C93.1265 132.185 92.9315 132.11 92.7035 132.044C92.4755 131.972 92.2055 131.936 91.8935 131.936C91.6235 131.936 91.3805 131.972 91.1645 132.044C90.9485 132.11 90.7625 132.203 90.6065 132.323C90.4565 132.443 90.3395 132.584 90.2555 132.746C90.1775 132.902 90.1385 133.073 90.1385 133.259C90.1385 133.493 90.2045 133.688 90.3365 133.844C90.4745 134 90.6545 134.135 90.8765 134.249C91.0985 134.363 91.3505 134.465 91.6325 134.555C91.9145 134.639 92.2025 134.732 92.4965 134.834C92.7965 134.93 93.0875 135.038 93.3695 135.158C93.6515 135.278 93.9035 135.428 94.1255 135.608C94.3475 135.788 94.5245 136.01 94.6565 136.274C94.7945 136.532 94.8635 136.844 94.8635 137.21C94.8635 137.63 94.7885 138.02 94.6385 138.38C94.4885 138.734 94.2665 139.043 93.9725 139.307C93.6785 139.565 93.3185 139.769 92.8925 139.919C92.4665 140.069 91.9745 140.144 91.4165 140.144C90.7805 140.144 90.2045 140.042 89.6885 139.838C89.1725 139.628 88.7345 139.361 88.3745 139.037L88.7525 138.425C88.8005 138.347 88.8575 138.287 88.9235 138.245C88.9895 138.203 89.0735 138.182 89.1755 138.182C89.2835 138.182 89.3975 138.224 89.5175 138.308C89.6375 138.392 89.7815 138.485 89.9495 138.587C90.1235 138.689 90.3335 138.782 90.5795 138.866C90.8255 138.95 91.1315 138.992 91.4975 138.992C91.8095 138.992 92.0825 138.953 92.3165 138.875C92.5505 138.791 92.7455 138.68 92.9015 138.542C93.0575 138.404 93.1715 138.245 93.2435 138.065C93.3215 137.885 93.3605 137.693 93.3605 137.489C93.3605 137.237 93.2915 137.03 93.1535 136.868C93.0215 136.7 92.8445 136.559 92.6225 136.445C92.4005 136.325 92.1455 136.223 91.8575 136.139C91.5755 136.049 91.2845 135.956 90.9845 135.86C90.6905 135.764 90.3995 135.656 90.1115 135.536C89.8295 135.41 89.5775 135.254 89.3555 135.068C89.1335 134.882 88.9535 134.654 88.8155 134.384C88.6835 134.108 88.6175 133.775 88.6175 133.385C88.6175 133.037 88.6895 132.704 88.8335 132.386C88.9775 132.062 89.1875 131.78 89.4635 131.54C89.7395 131.294 90.0785 131.099 90.4805 130.955C90.8825 130.811 91.3415 130.739 91.8575 130.739C92.4575 130.739 92.9945 130.835 93.4685 131.027C93.9485 131.213 94.3625 131.471 94.7105 131.801L94.3505 132.386ZM104.325 130.883V140H103.371C103.143 140 102.999 139.889 102.939 139.667L102.813 138.686C102.417 139.124 101.973 139.478 101.481 139.748C100.989 140.012 100.425 140.144 99.7886 140.144C99.2906 140.144 98.8496 140.063 98.4656 139.901C98.0876 139.733 97.7696 139.499 97.5116 139.199C97.2536 138.899 97.0586 138.536 96.9266 138.11C96.8006 137.684 96.7376 137.213 96.7376 136.697V130.883H98.3396V136.697C98.3396 137.387 98.4956 137.921 98.8076 138.299C99.1256 138.677 99.6086 138.866 100.257 138.866C100.731 138.866 101.172 138.755 101.58 138.533C101.994 138.305 102.375 137.993 102.723 137.597V130.883H104.325ZM108.386 132.71C108.674 132.086 109.028 131.6 109.448 131.252C109.868 130.898 110.381 130.721 110.987 130.721C111.179 130.721 111.362 130.742 111.536 130.784C111.716 130.826 111.875 130.892 112.013 130.982L111.896 132.179C111.86 132.329 111.77 132.404 111.626 132.404C111.542 132.404 111.419 132.386 111.257 132.35C111.095 132.314 110.912 132.296 110.708 132.296C110.42 132.296 110.162 132.338 109.934 132.422C109.712 132.506 109.511 132.632 109.331 132.8C109.157 132.962 108.998 133.166 108.854 133.412C108.716 133.652 108.59 133.928 108.476 134.24V140H106.865V130.883H107.783C107.957 130.883 108.077 130.916 108.143 130.982C108.209 131.048 108.254 131.162 108.278 131.324L108.386 132.71ZM119.154 134.447C119.154 134.075 119.1 133.736 118.992 133.43C118.89 133.118 118.737 132.851 118.533 132.629C118.335 132.401 118.092 132.227 117.804 132.107C117.516 131.981 117.189 131.918 116.823 131.918C116.055 131.918 115.446 132.143 114.996 132.593C114.552 133.037 114.276 133.655 114.168 134.447H119.154ZM120.45 138.722C120.252 138.962 120.015 139.172 119.739 139.352C119.463 139.526 119.166 139.67 118.848 139.784C118.536 139.898 118.212 139.982 117.876 140.036C117.54 140.096 117.207 140.126 116.877 140.126C116.247 140.126 115.665 140.021 115.131 139.811C114.603 139.595 114.144 139.283 113.754 138.875C113.37 138.461 113.07 137.951 112.854 137.345C112.638 136.739 112.53 136.043 112.53 135.257C112.53 134.621 112.626 134.027 112.818 133.475C113.016 132.923 113.298 132.446 113.664 132.044C114.03 131.636 114.477 131.318 115.005 131.09C115.533 130.856 116.127 130.739 116.787 130.739C117.333 130.739 117.837 130.832 118.299 131.018C118.767 131.198 119.169 131.462 119.505 131.81C119.847 132.152 120.114 132.578 120.306 133.088C120.498 133.592 120.594 134.168 120.594 134.816C120.594 135.068 120.567 135.236 120.513 135.32C120.459 135.404 120.357 135.446 120.207 135.446H114.114C114.132 136.022 114.21 136.523 114.348 136.949C114.492 137.375 114.69 137.732 114.942 138.02C115.194 138.302 115.494 138.515 115.842 138.659C116.19 138.797 116.58 138.866 117.012 138.866C117.414 138.866 117.759 138.821 118.047 138.731C118.341 138.635 118.593 138.533 118.803 138.425C119.013 138.317 119.187 138.218 119.325 138.128C119.469 138.032 119.592 137.984 119.694 137.984C119.826 137.984 119.928 138.035 120 138.137L120.45 138.722Z" fill="url(#paint3_linear)"/>
</g>
<defs>
<linearGradient id="paint0_linear" x1="0" y1="0" x2="150" y2="160" gradientUnits="userSpaceOnUse">
<stop stop-color="#1F2328"/>
<stop offset="1" stop-color="#1A1C1F"/>
</linearGradient>
<linearGradient id="paint1_linear" x1="105.535" y1="42" x2="31.5352" y2="178.5" gradientUnits="userSpaceOnUse">
<stop stop-color="#131517"/>
<stop offset="0.763408" stop-color="#1E2226" stop-opacity="0"/>
</linearGradient>
<linearGradient id="paint2_linear" x1="79" y1="95.4648" x2="5.00001" y2="231.965" gradientUnits="userSpaceOnUse">
<stop stop-color="#131517"/>
<stop offset="0.763408" stop-color="#1E2226" stop-opacity="0"/>
</linearGradient>
<linearGradient id="paint3_linear" x1="16" y1="135" x2="83.5" y2="133" gradientUnits="userSpaceOnUse">
<stop stop-color="#7F8489"/>
<stop offset="1" stop-color="#7F8489" stop-opacity="0"/>
</linearGradient>
</defs>
</svg>
