<svg width="18" height="18" viewBox="0 0 18 18" fill="none" xmlns="http://www.w3.org/2000/svg">
<path d="M2.2016 14.3862L2.20153 14.3861L2.19471 14.3803L2.19462 14.3802C1.82784 14.0657 1.27551 14.1079 0.960865 14.4747L0.960844 14.4747C0.646239 14.8415 0.688541 15.3939 1.05535 15.7085L1.05891 15.7116C2.01254 16.5296 3.1448 17.5008 5.31236 17.5008C7.47999 17.5008 8.61228 16.5296 9.56594 15.7116L9.56956 15.7085C10.0207 15.3215 10.4163 14.9837 10.8928 14.7375C11.3623 14.495 11.9191 14.3379 12.6874 14.3379C13.4558 14.3379 14.0126 14.495 14.482 14.7375C14.9586 14.9837 15.3541 15.3215 15.8053 15.7085L15.8053 15.7085C16.1721 16.0231 16.7245 15.9809 17.0391 15.614L17.0391 15.614C17.3537 15.2472 17.3115 14.6948 16.9446 14.3802L16.9409 14.377C15.9873 13.5591 14.855 12.5879 12.6874 12.5879C10.5198 12.5879 9.3875 13.5591 8.43384 14.3771L8.43022 14.3802C8.43022 14.3802 8.43022 14.3802 8.43022 14.3802C7.97905 14.7672 7.5835 15.105 7.10693 15.3512C6.63746 15.5937 6.0807 15.7508 5.31236 15.7508C4.54407 15.7508 3.98735 15.5937 3.51792 15.3512C3.04381 15.1063 2.64988 14.7707 2.2016 14.3862Z" fill="#FFFFFF" stroke="#FFFFFF" stroke-width="0.5"/>
<path d="M2.2016 8.38617L2.20153 8.38609L2.19471 8.38026L2.19462 8.38017C1.82784 8.06567 1.27551 8.10792 0.960865 8.47467L0.960845 8.47469C0.646241 8.84149 0.68854 9.39391 1.05534 9.70852L2.2016 8.38617ZM2.2016 8.38617C2.64988 8.77065 3.04381 9.10628 3.51792 9.35119C3.98735 9.59368 4.54407 9.7508 5.31236 9.7508C6.0807 9.7508 6.63746 9.59367 7.10693 9.35117C7.5835 9.10499 7.97905 8.76717 8.43022 8.3802C8.43022 8.38019 8.43022 8.38019 8.43022 8.38019L8.43384 8.37709C9.3875 7.5591 10.5198 6.58789 12.6874 6.58789C14.855 6.58789 15.9873 7.55906 16.9409 8.37699L16.9446 8.38018C17.3115 8.69481 17.3537 9.24721 17.0391 9.61401L17.0391 9.61403C16.7245 9.98085 16.1721 10.0231 15.8053 9.70851L15.8053 9.70849C15.3541 9.32152 14.9586 8.9837 14.482 8.73752C14.0126 8.49502 13.4558 8.33789 12.6874 8.33789C11.9191 8.33789 11.3623 8.49502 10.8928 8.73752C10.4163 8.9837 10.0207 9.32153 9.56956 9.70849L9.56594 9.7116C8.61228 10.5296 7.47999 11.5008 5.31236 11.5008C3.1448 11.5008 2.01254 10.5296 1.05891 9.71158L1.05535 9.70853L2.2016 8.38617Z" fill="#FFFFFF" stroke="#FFFFFF" stroke-width="0.5"/>
<path d="M2.2016 2.38617L2.20153 2.38609L2.19471 2.38026L2.19462 2.38017C1.82784 2.06567 1.27551 2.10792 0.960865 2.47467L0.960845 2.47469C0.646241 2.84149 0.68854 3.39391 1.05534 3.70852L2.2016 2.38617ZM2.2016 2.38617C2.64988 2.77065 3.04381 3.10628 3.51792 3.35119C3.98735 3.59368 4.54407 3.7508 5.31236 3.7508C6.0807 3.7508 6.63746 3.59367 7.10693 3.35117C7.5835 3.10499 7.97905 2.76717 8.43022 2.3802C8.43022 2.38019 8.43022 2.38019 8.43022 2.38019L8.43384 2.37709C9.3875 1.5591 10.5198 0.587891 12.6874 0.587891C14.855 0.587891 15.9873 1.55906 16.9409 2.37699L16.9446 2.38018C17.3115 2.69481 17.3537 3.24721 17.0391 3.61401L17.0391 3.61403C16.7245 3.98085 16.1721 4.02308 15.8053 3.70851L15.8053 3.70849C15.3541 3.32152 14.9586 2.9837 14.482 2.73752C14.0126 2.49502 13.4558 2.33789 12.6874 2.33789C11.9191 2.33789 11.3623 2.49502 10.8928 2.73752C10.4163 2.9837 10.0207 3.32153 9.56956 3.70849L9.56594 3.7116C8.61228 4.52959 7.47999 5.5008 5.31236 5.5008C3.1448 5.5008 2.01254 4.52958 1.05891 3.71158L1.05535 3.70853L2.2016 2.38617Z" fill="#FFFFFF" stroke="#FFFFFF" stroke-width="0.5"/>
</svg>
