<svg width="20" height="22" viewBox="0 0 20 22" fill="none" xmlns="http://www.w3.org/2000/svg">
<path d="M13.7137 12.2071L11.6449 11L13.7136 9.79289C13.9864 9.63377 14.0808 9.27953 13.9246 9.00171C13.7684 8.72389 13.4206 8.62768 13.148 8.78683L11.0691 9.99985V7.57972C11.0691 7.25953 10.8143 7 10.5 7C10.1857 7 9.93091 7.25953 9.93091 7.57972V9.99985L7.85203 8.78683C7.57929 8.62765 7.23158 8.72389 7.07536 9.00171C6.91915 9.27953 7.01362 9.63374 7.28632 9.79289L9.35505 11L7.28635 12.2071C7.01362 12.3663 6.91918 12.7205 7.07539 12.9983C7.23161 13.2761 7.57929 13.3723 7.85206 13.2132L9.93091 12.0001V14.4203C9.93091 14.7405 10.1857 15 10.5 15C10.8143 15 11.0691 14.7405 11.0691 14.4203V12.0001L13.148 13.2132C13.4206 13.3723 13.7684 13.2761 13.9246 12.9983C14.0808 12.7205 13.9864 12.3663 13.7137 12.2071Z" fill="#ffffff" stroke="#ffffff" stroke-width="0.5"/>
<path d="M17.4343 4.43183L12.4304 1.56539C11.1145 0.811558 9.47937 0.811519 8.16336 1.56539L3.15945 4.43183C1.82746 5.19488 1 6.62269 1 8.15804V13.8419C1 15.3773 1.82746 16.8051 3.15949 17.5682L8.1634 20.4346C9.47941 21.1885 11.1144 21.1885 12.4304 20.4346L17.4343 17.5682C18.7662 16.8051 19.5937 15.3773 19.5937 13.8419V8.15804C19.5937 6.62265 18.7662 5.19484 17.4343 4.43183ZM18.0312 13.8419C18.0312 14.8185 17.5049 15.7266 16.6577 16.2119L11.6539 19.0784C10.8169 19.5579 9.77691 19.5579 8.93988 19.0784L3.93598 16.2119C3.08879 15.7266 2.5625 14.8185 2.5625 13.8419V8.15804C2.5625 7.18148 3.08879 6.27335 3.93602 5.78804L8.93992 2.9216C9.77687 2.44214 10.8169 2.44207 11.6539 2.9216L16.6578 5.78804C17.5049 6.27335 18.0312 7.18148 18.0312 8.15804V13.8419Z" fill="#ffffff" stroke="#ffffff" stroke-width="0.5"/>
</svg>
