<svg width="19" height="23" viewBox="0 0 19 23" fill="none" xmlns="http://www.w3.org/2000/svg">
<path d="M7.25 2.5625H11.9375C12.369 2.5625 12.7188 2.21273 12.7188 1.78125C12.7188 1.34977 12.369 1 11.9375 1H7.25C6.81852 1 6.46875 1.34977 6.46875 1.78125C6.46875 2.21273 6.81852 2.5625 7.25 2.5625Z" fill="#ffffff" stroke="#ffffff" stroke-width="0.5"/>
<path d="M9.59375 4.8125C4.84359 4.8125 1 8.65676 1 13.4062C1 18.1563 4.84414 22 9.59375 22C14.3439 22 18.1875 18.1557 18.1875 13.4062C18.1875 8.65609 14.3432 4.8125 9.59375 4.8125ZM9.59375 20.4375C5.71672 20.4375 2.5625 17.2833 2.5625 13.4062C2.5625 9.52922 5.71672 6.375 9.59375 6.375C13.4708 6.375 16.625 9.52922 16.625 13.4062C16.625 17.2833 13.4708 20.4375 9.59375 20.4375Z" fill="#ffffff" stroke="#ffffff" stroke-width="0.5"/>
<path d="M9.59375 9.71875C9.16227 9.71875 8.8125 10.0685 8.8125 10.5V14.4062C8.8125 14.8377 9.16227 15.1875 9.59375 15.1875C10.0252 15.1875 10.375 14.8377 10.375 14.4062V10.5C10.375 10.0685 10.0252 9.71875 9.59375 9.71875Z" fill="#ffffff" stroke="#ffffff" stroke-width="0.5"/>
</svg>
