<svg width="68" height="70" viewBox="0 0 68 70" fill="none" xmlns="http://www.w3.org/2000/svg">
<g filter="url(#filter0_dd)">
<path d="M33.7893 25C32.8199 25 32.0313 25.7886 32.0313 26.758V33.8289C32.0313 34.7983 32.8199 35.5869 33.7893 35.5869C34.7587 35.5869 35.5472 34.7983 35.5472 33.8289V26.758C35.5472 25.7886 34.7587 25 33.7893 25Z" fill="white"/>
<path d="M39.6725 29.6466C38.9327 28.9793 37.856 29.0552 37.21 29.7197C36.5603 30.388 36.5101 31.52 37.3331 32.2703C38.6394 33.4576 39.2996 35.257 38.9869 37.0722C38.5623 39.5358 36.4198 41.4772 33.7896 41.4829C31.0954 41.4889 29.0314 39.4997 28.6057 37.162C28.2738 35.3359 28.8861 33.5076 30.2452 32.2715C31.0659 31.5243 31.0231 30.3874 30.3716 29.7184C29.7244 29.0538 28.6413 28.982 27.895 29.6574C25.8282 31.5294 24.7494 34.2968 25.0496 37.1019C25.5268 41.562 29.2926 44.9997 33.8103 44.9997C38.2762 44.9997 41.9327 41.5538 42.4965 37.3926C42.8897 34.493 41.8339 31.5973 39.6725 29.6466Z" fill="white"/>
</g>
<defs>
<filter id="filter0_dd" x="6.10352e-05" y="0" width="67.5774" height="69.9997" filterUnits="userSpaceOnUse" color-interpolation-filters="sRGB">
<feFlood flood-opacity="0" result="BackgroundImageFix"/>
<feColorMatrix in="SourceAlpha" type="matrix" values="0 0 0 0 0 0 0 0 0 0 0 0 0 0 0 0 0 0 127 0"/>
<feOffset/>
<feGaussianBlur stdDeviation="12.5"/>
<feColorMatrix type="matrix" values="0 0 0 0 0.14902 0 0 0 0 0.670588 0 0 0 0 0.968627 0 0 0 0.2 0"/>
<feBlend mode="normal" in2="BackgroundImageFix" result="effect1_dropShadow"/>
<feColorMatrix in="SourceAlpha" type="matrix" values="0 0 0 0 0 0 0 0 0 0 0 0 0 0 0 0 0 0 127 0"/>
<feOffset/>
<feGaussianBlur stdDeviation="5"/>
<feColorMatrix type="matrix" values="0 0 0 0 0.3875 0 0 0 0 0.811538 0 0 0 0 1 0 0 0 0.5 0"/>
<feBlend mode="normal" in2="effect1_dropShadow" result="effect2_dropShadow"/>
<feBlend mode="normal" in="SourceGraphic" in2="effect2_dropShadow" result="shape"/>
</filter>
</defs>
</svg>
